<svg xmlns="http://www.w3.org/2000/svg" width="1920" height="90" viewBox="0 0 1920 90">
  <defs>
    <style>
      .cls-1 {
        fill: #fff;
        fill-rule: evenodd;
      }
    </style>
  </defs>
  <path id="BG" class="cls-1" d="M0.008,70c23.419,0,23.419,20,46.838,20S70.266,70,93.685,70,117.1,90,140.517,90s23.416-20,46.833-20,23.416,20,46.832,20,23.415-20,46.83-20,23.417,20,46.833,20,23.416-20,46.832-20,23.416,20,46.832,20,23.416-20,46.832-20,23.415,20,46.83,20S538.585,70,562,70s23.414,20,46.828,20,23.415-20,46.83-20,23.413,20,46.826,20S725.9,70,749.314,70s23.414,20,46.827,20,23.412-20,46.825-20,23.411,20,46.823,20S913.2,70,936.618,70s23.414,20,46.828,20,23.414-20,46.834-20,23.41,20,46.82,20,23.42-20,46.83-20,23.42,20,46.83,20,23.42-20,46.83-20,23.41,20,46.83,20,23.41-20,46.83-20,23.41,20,46.83,20,23.41-20,46.83-20,23.41,20,46.82,20,23.42-20,46.83-20,23.41,20,46.83,20,23.41-20,46.82-20,23.42,20,46.83,20,23.42-20,46.83-20,23.41,20,46.83,20,23.41-20,46.82-20,23.42,20,46.83,20,23.41-20,46.83-20,23.41,20,46.82,20V0H0Z"/>
</svg>
